<?xml version="1.0" encoding="utf-8"?>
<!-- Generator: Adobe Illustrator 16.0.0, SVG Export Plug-In . SVG Version: 6.00 Build 0)  -->
<!DOCTYPE svg PUBLIC "-//W3C//DTD SVG 1.1//EN" "http://www.w3.org/Graphics/SVG/1.1/DTD/svg11.dtd">
<svg version="1.1" id="Layer_1" xmlns="http://www.w3.org/2000/svg" xmlns:xlink="http://www.w3.org/1999/xlink" x="0px" y="0px"
	 width="400px" height="400px" viewBox="0 0 400 400" enable-background="new 0 0 400 400" xml:space="preserve">
<g>
	<defs>
		<rect id="SVGID_1_" x="3.14111" y="3.14111" width="393.71729" height="393.71729"/>
	</defs>
	<clipPath id="SVGID_2_">
		<use xlink:href="#SVGID_1_"  overflow="visible"/>
	</clipPath>
	<polygon clip-path="url(#SVGID_2_)" fill="#CC007B" points="-25.76172,219.39941 76.23535,150.66113 133.71582,267.2168 
		213.3252,187.39209 184.15918,78.53613 308.77637,-4.66895 333.99805,396.8584 270.55469,400.94434 250.28418,325.31055 
		200,400.94434 113.24268,400.94434 	"/>
	<g clip-path="url(#SVGID_2_)">
		<defs>
			<polygon id="SVGID_3_" points="3.83447,3.85303 -1.98779,402.71777 396.8584,396.8584 425.48535,-24.76172 			"/>
		</defs>
		<clipPath id="SVGID_4_">
			<use xlink:href="#SVGID_3_"  overflow="visible"/>
		</clipPath>
		<g clip-path="url(#SVGID_4_)">
			<defs>
				<path id="SVGID_5_" d="M-358.3667,187.38623c0,315.72705,255.94629,571.69873,571.69873,571.69873
					c315.72754,0,571.69824-255.97168,571.68555-571.70508c0-315.7334-255.95801-571.68604-571.69824-571.68018
					C-102.42041-384.3125-358.37891-128.35352-358.3667,187.38623z"/>
			</defs>
			<clipPath id="SVGID_6_">
				<use xlink:href="#SVGID_5_"  overflow="visible"/>
			</clipPath>
			<g clip-path="url(#SVGID_6_)">
				<g>
					<polygon fill="#231F20" points="970.86426,393.59473 -315.77979,48.86963 -314.15381,42.80176 972.49023,387.52148 					"/>
					<polygon fill="#231F20" points="1013.98242,136.04102 -315.17236,48.9707 -314.76123,42.70068 1014.38672,129.771 					"/>
					
						<rect x="342.19537" y="-707.1178" transform="matrix(0.13091 0.99139 -0.99139 0.13091 259.36676 -378.09644)" fill="#231F20" width="6.28111" height="1332.0061"/>
					<polygon fill="#231F20" points="-313.95752,48.81152 -315.97607,42.86035 945.37891,-385.32471 947.40332,-379.37354 					"/>
					
						<rect x="258.68228" y="-953.2041" transform="matrix(0.49991 0.86608 -0.86608 0.49991 -117.78497 -370.37659)" fill="#231F20" width="6.28338" height="1332.04688"/>
					<polygon fill="#231F20" points="878.29688,637.77441 -316.35645,48.65186 -313.57715,43.01953 881.07031,632.14258 					"/>
					<polygon fill="#231F20" points="739.88184,859.18555 -316.87793,48.32666 -313.05566,43.34473 743.70996,854.2041 					"/>
					<polygon fill="#231F20" points="348.34766,1200.96289 -317.6875,47.40625 -312.24561,44.26514 353.78418,1197.82227 					"/>
					<polygon fill="#231F20" points="560.96777,1049.35742 -317.32861,47.90625 -312.60449,43.76514 565.69238,1045.20996 					"/>
				</g>
			</g>
			<g clip-path="url(#SVGID_6_)">
				<g>
					
						<rect x="162.40988" y="-379.33704" transform="matrix(0.70703 0.70718 -0.70718 0.70703 214.81648 -48.17435)" fill="#231F20" width="6.28179" height="1229.03198"/>
					<polygon fill="#231F20" points="-80.11572,824.28906 -85.33691,820.80469 597.46582,-201.09521 602.69336,-197.604 					"/>
					
						<rect x="361.77777" y="-246.12494" transform="matrix(0.92382 0.38283 -0.38283 0.92382 168.8326 -111.63794)" fill="#231F20" width="6.28284" height="1229.03357"/>
					
						<rect x="477.04004" y="-211.15991" transform="matrix(0.98072 0.19543 -0.19543 0.98072 88.08725 -86.06329)" fill="#231F20" width="6.28127" height="1229.04395"/>
					<rect x="596.9292" y="-199.34961" fill="#231F20" width="6.28223" height="1229.04395"/>
					<polygon fill="#231F20" points="-420.0957,486.07617 -423.58643,480.84863 598.33691,-201.95996 601.82227,-196.73926 					"/>
					
						<rect x="29.19093" y="-578.70557" transform="matrix(0.38279 0.92383 -0.92383 0.38279 53.04734 -7.76105)" fill="#231F20" width="6.2822" height="1229.05127"/>
					<rect x="-628.98242" y="-202.47241" fill="#231F20" width="1229.0625" height="6.28223"/>
					
						<rect x="-5.77858" y="-693.97839" transform="matrix(0.19544 0.98071 -0.98071 0.19544 -80.0408 -61.33508)" fill="#231F20" width="6.28079" height="1229.05591"/>
				</g>
			</g>
			<g clip-path="url(#SVGID_6_)">
				<g>
					<polygon fill="#231F20" points="351.85742,716.5127 29.40869,-486.86475 35.47656,-488.49023 357.93164,714.88086 					"/>
					<polygon fill="#231F20" points="352.07812,717.08301 -198.96338,-400.25439 -193.33105,-403.03369 357.70996,714.31055 					
						"/>
					<polygon fill="#231F20" points="352.40332,717.61133 -406.0249,-270.77832 -401.04297,-274.60059 357.38477,713.78223 					"/>
					<polygon fill="#231F20" points="352.82031,718.05859 -583.86768,-103.40186 -579.72656,-108.12598 356.96777,713.33496 					
						"/>
					<polygon fill="#231F20" points="353.32324,718.41504 -725.62939,95.49072 -722.48828,90.04883 356.46484,712.97852 					"/>
					<polygon fill="#231F20" points="351.75879,715.89941 270.28418,-527.26465 276.55469,-527.67578 358.0293,715.49414 					"/>
					
						<rect x="433.03506" y="-524.81494" transform="matrix(0.99143 0.13063 -0.13063 0.99143 16.55246 -56.13623)" fill="#231F20" width="6.28727" height="1245.83789"/>
					<polygon fill="#231F20" points="357.6123,717.26758 352.17676,714.12598 975.04785,-364.82715 980.48438,-361.68604 					"/>
					<polygon fill="#231F20" points="357.87012,716.70898 351.91895,714.68457 752.32324,-465.06006 758.27441,-463.04199 					"/>
				</g>
			</g>
		</g>
	</g>
</g>
<path fill="#231F20" d="M400,400H0V0h400V400z M6.28223,393.71777h387.43555V6.28223H6.28223V393.71777z"/>
</svg>
